<svg width="129" height="21" viewBox="0 0 129 21" fill="none" xmlns="http://www.w3.org/2000/svg">
<g id="logo">
<path d="M120.362 2.643H120.418L123.941 12.111H116.793L120.362 2.643ZM126.6 19.235H128.012L121.081 0.695004H120.173L113.051 19.235H114.091L116.467 12.964H124.257L126.6 19.235ZM88.378 19.235V1.868H88.429L94.776 19.202H95.791L102.2 1.893H102.251V19.227H103.587V0.828004H101.721L95.558 17.285H95.533L89.42 0.828004H87.447V19.235H88.378ZM67.125 0.828004V19.235H77.954V18.384H68.461V10.056H74.89V9.205H68.461V1.679H77.184V0.828004H67.125ZM21.418 0.828004H20.087V19.235H31.023V18.384H21.418V0.828004ZM0 0.828004V19.235H1.336V10.188H7.736V9.335H1.336V1.679H10.671V0.828004H0Z" fill="white"/>
<path d="M45.676 20C45.3222 20.0426 44.9636 19.9823 44.6433 19.8262C44.323 19.6701 44.0545 19.4249 43.87 19.12C43.842 19.078 43.819 19.04 43.796 19.013L43.683 18.878C43.2571 18.3444 42.7999 17.8365 42.314 17.357C42.0549 17.0541 41.8966 16.678 41.861 16.281C41.8388 16.1444 41.8029 16.0104 41.754 15.881C41.726 15.833 41.654 15.728 41.554 15.581C41.0215 14.8643 40.5827 14.0827 40.248 13.255C40.1552 12.6107 40.1995 11.954 40.378 11.328C40.4474 11.053 40.488 10.7715 40.499 10.488C40.3828 9.94485 40.1831 9.42298 39.907 8.941C39.6868 8.64534 39.5559 8.29276 39.5298 7.92502C39.5038 7.55727 39.5837 7.18976 39.76 6.866C40.328 5.566 40.644 4.876 41.033 4.635C41.386 4.417 42.518 3.828 42.566 3.803L42.584 3.795C42.9738 3.63389 43.288 3.33081 43.463 2.947C43.526 2.847 43.589 2.738 43.663 2.638C43.7321 2.53626 43.7948 2.4304 43.851 2.321C43.998 2.043 44.083 1.921 44.724 1.621C45.6995 1.37833 46.7213 1.39383 47.689 1.666C47.8774 1.70867 48.0685 1.73808 48.261 1.754C49.1977 1.95996 50.1084 2.27023 50.976 2.679L51.203 2.769C51.949 3.14708 52.6334 3.63596 53.233 4.219C53.5256 4.50934 53.8763 4.73459 54.262 4.88C54.435 4.96 54.614 5.042 54.778 5.137C55.347 5.468 55.985 6.004 56.07 6.514C56.085 6.606 56.103 6.703 56.124 6.808C56.2598 7.50297 56.3457 8.20677 56.381 8.914C56.5344 9.90112 56.3874 10.9116 55.959 11.814C55.6396 12.415 55.4098 13.0595 55.277 13.727C55.0176 14.6808 54.4696 15.5309 53.708 16.161C53.1839 16.7938 52.4901 17.2639 51.708 17.516C51.608 17.55 51.508 17.584 51.393 17.627C51.241 17.683 51.118 17.722 51.011 17.755C50.579 17.89 50.418 17.94 49.455 18.889C48.585 19.743 48.441 19.774 47.722 19.81C47.297 19.8281 46.8734 19.8698 46.453 19.935C46.196 19.9765 45.9363 19.9983 45.676 20ZM42.694 4.075C42.586 4.131 41.518 4.689 41.194 4.892C40.6706 5.50364 40.2778 6.21591 40.04 6.985C39.8908 7.25548 39.8204 7.56236 39.8369 7.87081C39.8533 8.17926 39.9559 8.47692 40.133 8.73C40.4549 9.26439 40.6823 9.85032 40.805 10.462C40.7984 10.7735 40.7557 11.0833 40.678 11.385C40.5128 11.9675 40.4682 12.5777 40.547 13.178C40.8758 13.972 41.3003 14.7229 41.811 15.414C41.911 15.566 41.99 15.679 42.02 15.73C42.0882 15.8861 42.1356 16.0505 42.161 16.219C42.1921 16.5443 42.3103 16.8551 42.503 17.119C43.01 17.6083 43.4828 18.1319 43.918 18.686L44.031 18.821C44.0671 18.8646 44.1005 18.9103 44.131 18.958C44.344 19.285 44.742 19.896 46.405 19.639C46.8356 19.5719 47.2696 19.5292 47.705 19.511C48.36 19.478 48.428 19.474 49.24 18.677C50.255 17.677 50.45 17.616 50.919 17.469C51.019 17.437 51.14 17.4 51.287 17.347C51.404 17.304 51.51 17.267 51.609 17.234C52.3482 16.9939 53.0026 16.5461 53.494 15.944C54.2117 15.3548 54.7303 14.5587 54.979 13.664C55.1178 12.9686 55.3573 12.2972 55.69 11.671C56.0935 10.8176 56.2284 9.86178 56.077 8.93C56.0427 8.23552 55.9585 7.5444 55.825 6.862C55.805 6.754 55.786 6.656 55.77 6.562C55.706 6.182 55.15 5.704 54.626 5.399C54.475 5.311 54.31 5.236 54.137 5.156C53.7111 4.99498 53.325 4.74393 53.005 4.42C52.4391 3.87204 51.7951 3.41103 51.094 3.052L50.865 2.961C50.0338 2.57816 49.1674 2.27675 48.278 2.061C48.062 2.04599 47.8474 2.0149 47.636 1.968C46.7294 1.71231 45.7731 1.68859 44.855 1.899C44.282 2.165 44.242 2.241 44.123 2.464C44.0612 2.58415 43.9921 2.70038 43.916 2.812C43.849 2.912 43.79 3.006 43.73 3.105C43.5175 3.54605 43.1481 3.89194 42.694 4.075Z" fill="white"/>
<path d="M46.954 14.618C46.5905 14.6065 46.2309 14.539 45.888 14.418L45.718 14.367C44.6885 13.8874 43.7403 13.2497 42.908 12.477C42.6959 12.2679 42.5395 12.009 42.453 11.724C42.2674 11.2006 41.9527 10.7324 41.538 10.363C40.538 9.342 40.424 8.945 40.338 8.655C40.3227 8.59924 40.304 8.54447 40.282 8.491C40.2542 8.41071 40.2427 8.3257 40.248 8.2409C40.2533 8.1561 40.2754 8.0732 40.313 7.997C40.6767 7.31423 41.2872 6.79597 42.02 6.548C42.3592 6.40919 42.6431 6.16235 42.8276 5.84577C43.0122 5.52919 43.0872 5.16055 43.041 4.797L43.023 4.672L43.05 4.662C43.061 4.55 43.082 4.299 43.127 3.741C43.209 2.729 44.057 2.188 45.727 2.087C47.237 1.994 47.873 2.138 48.441 2.701C48.9105 3.21061 49.4651 3.6346 50.08 3.954C50.28 4.042 50.548 4.129 50.834 4.222C51.355 4.35625 51.8522 4.5701 52.308 4.856C52.897 5.316 52.851 6.041 52.708 7.39L52.681 7.641C52.6869 8.19664 52.585 8.74814 52.381 9.26501C52.26 9.4813 52.1114 9.68097 51.939 9.859C51.4467 10.4136 51.0421 11.0402 50.739 11.717C50.6187 12.0931 50.42 12.4394 50.156 12.733L50.124 12.763C50.0226 12.8536 49.9135 12.9353 49.798 13.007C49.3213 13.3267 48.8653 13.6764 48.433 14.054C48.0271 14.419 47.4999 14.62 46.954 14.618ZM43.344 4.752C43.3938 5.18143 43.3031 5.61541 43.0855 5.98895C42.8679 6.36249 42.5351 6.65547 42.137 6.824C41.48 7.0406 40.9295 7.49793 40.596 8.104C40.5545 8.18253 40.5418 8.27308 40.56 8.36C40.5878 8.42502 40.6112 8.49184 40.63 8.56001C40.707 8.82001 40.814 9.175 41.757 10.142C42.2015 10.5429 42.5393 11.048 42.74 11.612C42.8118 11.8557 42.9447 12.077 43.126 12.255C43.9192 12.9918 44.8202 13.6032 45.798 14.068C45.853 14.083 45.913 14.102 45.977 14.122C46.3431 14.2888 46.7489 14.3482 47.1474 14.2933C47.5459 14.2384 47.9207 14.0715 48.228 13.812C48.6696 13.4272 49.1348 13.0705 49.621 12.744C49.7199 12.6824 49.8138 12.6132 49.902 12.537L49.937 12.503C50.037 12.403 50.124 12.323 50.453 11.583C50.7706 10.8795 51.1938 10.2287 51.708 9.653C51.8565 9.49395 51.9882 9.32003 52.101 9.134C52.2891 8.64685 52.3821 8.12817 52.375 7.606L52.402 7.355C52.545 5.988 52.558 5.439 52.116 5.095C51.6877 4.83255 51.2226 4.6357 50.736 4.511C50.4694 4.43115 50.2071 4.33769 49.95 4.231C49.3018 3.89714 48.717 3.45243 48.222 2.917C47.73 2.429 47.152 2.305 45.742 2.391C44.234 2.483 43.5 2.919 43.432 3.764C43.386 4.331 43.364 4.61 43.34 4.753L43.344 4.752Z" fill="white"/>
<path d="M47.69 18.503C47.4614 18.5189 47.2337 18.4615 47.04 18.339C46.7855 18.1179 46.5485 17.8775 46.331 17.62C45.779 17.01 45.025 16.18 44.464 16.23C43.7688 16.2144 43.108 15.9242 42.626 15.423C42.331 15.1562 42.0977 14.8284 41.9422 14.4622C41.7868 14.0961 41.713 13.7005 41.726 13.303C41.7366 12.8472 41.6042 12.3996 41.3473 12.023C41.0905 11.6463 40.7222 11.3596 40.294 11.203C40.2236 11.1723 40.1566 11.1344 40.094 11.09C40.051 11.0616 40.0062 11.0359 39.96 11.013C39.6115 10.8672 39.3127 10.6236 39.0998 10.3116C38.8868 9.99964 38.7688 9.63264 38.76 9.255C38.76 8.098 38.76 5.691 40.136 5.37C40.31 5.329 40.483 5.29 40.652 5.252C41.615 5.035 42.525 4.831 42.786 4.46C42.8527 4.3609 42.9106 4.25617 42.959 4.147C43.135 3.779 43.317 3.399 44.416 3.142L45.729 2.836C46.2168 2.43242 46.5836 1.9019 46.789 1.303C47.194 0.162004 47.847 0.0310041 48.303 0.0310041C48.345 0.0310041 48.421 0.0310041 48.524 0.0240041C49.892 -0.0289959 51.509 -0.0169959 51.885 0.557004C52.0451 0.825195 52.1877 1.10344 52.312 1.39C52.668 2.155 53.112 3.107 53.706 3.39C54.7268 3.95884 55.5642 4.80701 56.12 5.835C56.183 5.971 56.264 6.114 56.351 6.268C56.652 6.67313 56.8442 7.14864 56.9091 7.64915C56.9741 8.14966 56.9096 8.65847 56.722 9.127C56.3967 10.1383 55.7782 11.03 54.945 11.689C54.7018 11.9128 54.5132 12.1896 54.3939 12.4979C54.2746 12.8062 54.2278 13.1377 54.257 13.467C54.2624 13.6206 54.2499 13.7743 54.22 13.925C54.2044 13.9909 54.1927 14.0577 54.185 14.125C54.122 14.594 54.016 15.378 52.392 16.576C51.016 17.6111 49.3967 18.2748 47.69 18.503ZM44.515 15.923C45.207 15.923 45.954 16.748 46.558 17.417C46.7642 17.6599 46.9878 17.8875 47.227 18.098C47.756 18.504 50.366 17.686 52.21 16.325C53.729 15.204 53.821 14.525 53.881 14.08C53.8901 13.9986 53.9042 13.9178 53.923 13.838C53.9456 13.712 53.9546 13.5839 53.95 13.456C53.9207 13.0846 53.9766 12.7114 54.1133 12.3648C54.25 12.0182 54.464 11.7074 54.739 11.456C55.5411 10.8274 56.1339 9.97037 56.439 8.998C56.6069 8.57271 56.6624 8.11131 56.6 7.65833C56.5377 7.20536 56.3596 6.7761 56.083 6.412C55.992 6.251 55.907 6.099 55.84 5.957C55.314 4.99365 54.5287 4.19689 53.573 3.657C52.8541 3.11674 52.3181 2.36919 52.037 1.515C51.9188 1.24176 51.7836 0.97624 51.632 0.720004C51.413 0.386004 50.372 0.253004 48.538 0.325004C48.43 0.325004 48.349 0.332004 48.306 0.332004C48.053 0.332004 47.46 0.332004 47.08 1.401C46.8549 2.07287 46.4377 2.66395 45.88 3.101L45.828 3.124L44.484 3.437C43.529 3.661 43.399 3.937 43.233 4.277C43.1772 4.40178 43.1103 4.52126 43.033 4.634C42.704 5.1 41.783 5.307 40.716 5.548L40.202 5.665C39.063 5.932 39.063 8.259 39.063 9.253C39.0731 9.57564 39.1772 9.88829 39.3625 10.1526C39.5478 10.4169 39.8062 10.6214 40.106 10.741C40.1714 10.7732 40.2337 10.8113 40.292 10.855C40.3364 10.8823 40.3825 10.9066 40.43 10.928C40.9115 11.1118 41.324 11.4405 41.6106 11.8688C41.8972 12.2971 42.0438 12.8038 42.03 13.319C42.0218 13.6725 42.0895 14.0237 42.2288 14.3487C42.368 14.6737 42.5754 14.9651 42.837 15.203C43.2557 15.6434 43.8298 15.9029 44.437 15.926C44.462 15.924 44.489 15.923 44.515 15.923Z" fill="white"/>
<path d="M48.668 16.197C47.5579 16.2337 46.4513 16.0537 45.41 15.667C44.6655 15.3336 43.8641 15.1459 43.049 15.114L41.796 15.058C41.668 15.0591 41.5417 15.0285 41.4284 14.9688C41.3151 14.9091 41.2185 14.8222 41.147 14.716C40.747 14.105 41.125 12.882 41.547 11.767C41.804 11.087 40.891 10.552 39.847 10.018C38.734 9.447 38.764 9.225 39.371 7.381C39.497 6.77614 39.785 6.21689 40.2042 5.763C40.6234 5.30911 41.1581 4.97764 41.751 4.804L41.885 4.746C42.2301 4.54759 42.5257 4.27354 42.7497 3.94446C42.9736 3.61538 43.1201 3.23982 43.178 2.846C43.216 2.712 43.25 2.593 43.285 2.498C43.462 2.006 44.264 1.535 45.104 1.098L45.211 1.042C45.69 0.790004 48.461 0.542004 49.066 1.5C49.4763 2.05872 50.0184 2.50736 50.644 2.806C50.822 2.906 50.989 3.006 51.135 3.106C52.4388 4.09639 53.3513 5.51497 53.712 7.112C53.928 8.817 53.912 9.672 53.259 10.232C52.7145 10.6326 52.3458 11.228 52.23 11.894C52.2391 12.4722 52.0694 13.039 51.744 13.517C51.3906 13.9812 51.0992 14.4895 50.877 15.029C50.7395 15.3422 50.5214 15.6133 50.2448 15.8146C49.9683 16.016 49.6433 16.1403 49.303 16.175C49.092 16.1951 48.8799 16.2024 48.668 16.197ZM43.058 14.808C43.919 14.8383 44.7657 15.0374 45.55 15.394C46.7397 15.7956 47.9976 15.9561 49.25 15.866C49.5398 15.8399 49.8173 15.7362 50.0532 15.5659C50.2892 15.3956 50.4749 15.1649 50.591 14.898C50.8217 14.3385 51.1243 13.8114 51.491 13.33C51.7795 12.9001 51.9286 12.3917 51.918 11.874C52.0339 11.1221 52.4427 10.4466 53.055 9.995C53.555 9.566 53.631 8.953 53.402 7.146C53.0533 5.63698 52.1894 4.29674 50.959 3.356C50.818 3.262 50.659 3.169 50.485 3.07C49.8166 2.7461 49.2382 2.26252 48.801 1.662C48.318 0.891004 45.751 1.101 45.351 1.312L45.243 1.368C44.791 1.603 43.732 2.151 43.571 2.598C43.539 2.688 43.507 2.798 43.471 2.926C43.4016 3.36433 43.2335 3.78114 42.9793 4.14495C42.7252 4.50875 42.3917 4.81003 42.004 5.026L41.868 5.084C41.3166 5.24225 40.8193 5.54879 40.4301 5.97022C40.041 6.39165 39.7749 6.9118 39.661 7.474C39.069 9.274 39.085 9.282 39.985 9.744C40.869 10.197 42.205 10.882 41.829 11.874C41.61 12.451 41.029 13.984 41.399 14.548C41.4451 14.6126 41.5065 14.6647 41.5777 14.6996C41.6489 14.7345 41.7277 14.7511 41.807 14.748L43.058 14.808Z" fill="white"/>
<path d="M45.654 18.527C45.4878 18.52 45.3233 18.4904 45.165 18.439C44.7212 18.3159 44.2669 18.2345 43.808 18.196C43.3819 18.175 42.9689 18.0418 42.6107 17.8101C42.2525 17.5783 41.9618 17.2561 41.768 16.876V16.869L41.368 15.769C41.1237 15.4586 40.9447 15.102 40.8416 14.7207C40.7385 14.3394 40.7134 13.9412 40.768 13.55V13.475C40.8409 13.1338 40.8202 12.7792 40.7081 12.4487C40.596 12.1183 40.3966 11.8244 40.131 11.598C39.188 10.508 39.191 9.543 40.142 8.646C40.5498 8.31847 40.8142 7.84505 40.879 7.326C40.8804 7.21713 40.9052 7.10984 40.9516 7.01134C40.998 6.91285 41.065 6.82544 41.148 6.755C41.57 6.30048 41.9328 5.79448 42.228 5.249C42.364 3.135 42.523 2.833 42.611 2.767C45.402 0.0920041 48.086 1.146 48.111 1.156C48.7915 1.57003 49.4337 2.04391 50.03 2.572C50.2083 2.70158 50.4133 2.78972 50.63 2.83C51.1341 2.93635 51.5953 3.19009 51.955 3.559C52.579 4.23 53.345 4.086 54.613 3.847L54.725 3.826C56.086 3.572 56.533 4.926 56.925 6.111C56.971 6.249 57.017 6.387 57.064 6.523C57.436 7.593 56.864 8.058 56.256 8.549C56.0253 8.72755 55.8075 8.92202 55.604 9.131C55.3964 9.36665 55.2545 9.65285 55.1927 9.96078C55.1309 10.2687 55.1514 10.5875 55.252 10.885C55.2984 11.12 55.3252 11.3585 55.332 11.598C55.3452 11.863 55.2937 12.1273 55.182 12.368C55.0492 12.6764 54.9831 13.0093 54.988 13.345C54.934 14.468 54.696 14.724 54.446 14.994L54.38 15.066C54.091 15.295 53.7682 15.4775 53.423 15.607C53.0533 15.7654 52.6969 15.953 52.357 16.168C51.7357 16.5453 51.0658 16.8363 50.366 17.033L50.148 17.105C49.9885 17.1618 49.8361 17.237 49.694 17.329C49.2644 17.6036 48.7649 17.749 48.255 17.748C47.6598 17.795 47.0809 17.9653 46.555 18.248C46.3505 18.3566 46.134 18.4412 45.91 18.5C45.8259 18.5182 45.7401 18.5272 45.654 18.527ZM42.054 16.761C42.2268 17.0891 42.4823 17.3663 42.7952 17.5652C43.1082 17.7641 43.4676 17.8778 43.838 17.895C44.3134 17.9355 44.7841 18.0199 45.244 18.147C45.435 18.2208 45.6428 18.2399 45.844 18.202C46.0439 18.1471 46.237 18.0703 46.42 17.973C46.9828 17.6722 47.6025 17.493 48.239 17.447C48.6999 17.4523 49.1521 17.3215 49.539 17.071C49.7001 16.9675 49.8726 16.883 50.053 16.819L50.273 16.746C50.9436 16.558 51.586 16.2808 52.183 15.922C52.5367 15.6947 52.9087 15.497 53.295 15.331C53.6001 15.2119 53.8888 15.0543 54.154 14.862L54.223 14.787C54.444 14.548 54.635 14.342 54.684 13.33C54.6808 12.9577 54.7554 12.5888 54.903 12.247C54.9981 12.0445 55.0411 11.8214 55.028 11.598C55.0212 11.3759 54.9958 11.1548 54.952 10.937C54.843 10.5928 54.8253 10.2262 54.9007 9.87315C54.9761 9.52007 55.1419 9.19266 55.382 8.923C55.5952 8.70371 55.8234 8.49955 56.065 8.312C56.675 7.818 57.078 7.492 56.776 6.624C56.728 6.487 56.682 6.348 56.636 6.208C56.244 5.032 55.876 3.921 54.778 4.127L54.666 4.148C53.341 4.397 52.466 4.56 51.727 3.768C51.4047 3.4407 50.9921 3.21685 50.542 3.125C50.2796 3.07255 50.033 2.95955 49.822 2.795C49.2524 2.29187 48.6412 1.83791 47.995 1.438C47.965 1.427 45.425 0.495004 42.818 2.995C42.6213 3.74974 42.5248 4.52708 42.531 5.307L42.511 5.373C42.1897 5.96526 41.7927 6.5132 41.33 7.003C41.23 7.076 41.213 7.169 41.182 7.374C41.1092 7.96213 40.8123 8.49947 40.353 8.874C39.523 9.657 39.527 10.437 40.364 11.403C40.6551 11.6587 40.874 11.9862 40.9987 12.353C41.1235 12.7198 41.1498 13.1129 41.075 13.493V13.568C41.0217 13.9355 41.0453 14.31 41.1443 14.6679C41.2433 15.0257 41.4155 15.3591 41.65 15.647L42.054 16.761Z" fill="white"/>
</g>
</svg>
